<svg width="232" height="140" viewBox="0 0 232 140" fill="none" xmlns="http://www.w3.org/2000/svg">
<path fill-rule="evenodd" clip-rule="evenodd" d="M231.411 116.819H213.348V88.5272H216.961V103.417V114.691H218.661H231.411V116.819ZM198.047 116.819H178.921V88.5272H197.197V90.8671H194.01H182.534V101.078H191.885H195.072V102.779H192.097H182.534V114.691H193.797H198.047V116.819ZM154.483 90.6544V109.161V116.819H150.87V115.33V90.6544H145.982H140.032V88.3145H165.533V90.6544H154.483ZM109.431 110.012H112.831C113.043 115.755 120.056 116.819 123.881 114.479C125.369 113.628 126.219 112.139 126.219 110.437C126.219 108.735 125.581 107.459 124.519 106.608C123.881 105.97 122.394 105.332 120.056 104.481C117.081 103.417 115.381 102.567 114.743 102.354C113.043 101.503 111.768 100.652 110.918 99.8012C110.068 98.7376 109.431 97.2486 109.431 95.5469C109.431 85.5492 127.919 85.1238 127.919 95.3342H124.519C124.306 89.8035 118.356 88.5272 114.531 91.2925C113.468 91.9307 112.831 92.9943 112.618 93.8451C112.618 94.0579 112.618 94.2706 112.618 94.696C112.618 96.3977 113.681 97.674 115.593 98.7376C116.231 98.9503 118.144 99.8012 121.544 101.078C123.244 101.716 124.519 102.354 125.369 102.779C126.006 103.205 126.432 103.417 126.857 103.63C128.557 104.906 129.407 106.821 129.407 108.948C129.407 111.501 128.344 113.415 126.432 115.117C121.969 118.946 109.431 118.52 109.431 110.012ZM94.7675 116.819H91.1548V115.33V89.8035V88.3145H94.7675V116.819ZM78.4042 116.819C77.7667 117.031 76.9167 117.244 75.8541 117.244C74.154 117.244 72.879 116.819 72.0289 115.968C71.3914 115.33 69.9038 113.415 67.5662 110.012C65.6536 107.034 64.3786 105.332 63.9536 104.906C63.5285 104.481 63.1035 104.268 62.466 104.268H59.0658V115.33V116.819H55.4532V88.5272H64.5911C67.7787 88.5272 70.3289 89.3781 71.8164 91.0798C73.0915 92.3561 73.729 94.0579 73.729 95.9723C73.729 97.8868 73.0915 99.3758 72.0289 100.865C70.7539 102.567 68.8413 103.417 66.5037 103.417H65.8662V103.63L66.7162 103.843C67.1412 104.056 67.5662 104.481 67.9913 104.906C69.0538 106.821 70.5414 109.161 72.454 111.926C73.304 113.202 74.154 114.053 74.5791 114.479C75.4291 115.117 76.2791 115.542 77.3417 115.542H78.1917V116.819H78.4042ZM69.9038 96.185C69.9038 94.4833 69.2663 92.9943 67.9913 91.9307C66.7162 90.8671 65.2286 90.229 63.1035 90.229H59.0658V102.567H63.316C65.2286 102.567 66.9287 101.928 68.2038 100.439C69.2663 99.1631 69.9038 97.8868 69.9038 96.185ZM41.0025 116.819H36.9648L33.1396 108.523H19.7515L16.3513 116.819H14.4387L26.3393 88.3145H28.0394L41.0025 116.819ZM32.5021 106.608L26.5518 93.4197H26.1268L20.6015 106.608H32.5021Z" fill="#73AEBE"/>
<path fill-rule="evenodd" clip-rule="evenodd" d="M94.7675 0.887939V74.2752H150.658V0.887939H94.7675ZM122.394 66.192C120.056 63.0012 118.569 59.8105 117.506 56.407C116.231 51.94 116.019 47.4729 116.231 43.0059C116.444 41.0914 116.656 39.177 117.081 37.2625C117.506 34.4972 118.144 31.9446 118.781 29.392C118.994 28.3284 119.206 27.4775 119.419 26.414C120.056 24.0741 120.906 19.607 120.906 19.607C121.119 17.9053 121.331 16.2035 121.331 14.7145C121.331 12.1619 120.481 10.2475 118.781 8.97118C117.506 7.90759 116.231 7.48216 114.743 7.69488C111.768 8.12031 108.793 10.4602 108.793 10.4602C115.168 1.95153 125.581 5.78043 127.919 14.7145C128.344 16.2035 128.557 17.6926 128.557 19.607L129.407 19.3943C128.982 22.3723 128.132 24.9249 127.282 26.6267C126.644 27.6903 126.219 28.5411 125.581 29.6047C124.094 31.9446 122.181 34.0718 120.694 37.4752C120.056 38.7515 119.631 40.2405 118.994 41.9423C120.056 39.6024 121.544 38.5388 123.031 37.4752C124.944 35.9862 127.069 34.2845 129.407 30.0301C129.194 32.7955 128.769 35.3481 127.919 37.4752C127.282 39.6024 126.219 41.5168 125.369 43.2186C123.031 47.6856 120.694 51.7272 120.481 56.6197C120.481 59.3851 121.119 62.5758 123.244 66.4047C124.094 67.8937 125.156 69.5955 126.644 71.5099C125.156 69.5955 123.669 67.8937 122.394 66.192ZM134.294 62.7885C132.807 63.8521 131.532 65.1284 130.682 66.192C128.132 69.3827 127.919 71.9353 127.494 70.8717C126.857 69.17 126.432 67.681 126.432 66.192C126.644 63.214 128.982 61.2995 134.719 60.2359C138.332 59.5978 140.457 58.3215 134.294 62.7885Z" fill="#73AEBE"/>
<path d="M33.4657 135.472H33.9387C34.5254 134.203 35.2661 132.517 36.1607 130.412C36.5201 129.561 36.7804 128.927 36.9417 128.509H37.4697C37.6164 128.876 37.8181 129.367 38.0747 129.983C38.2214 130.335 38.6431 131.343 39.3397 133.008C39.6257 133.69 39.9741 134.511 40.3847 135.472H40.8577L40.8247 135.912C40.8247 135.956 40.8284 136.044 40.8357 136.176C40.8431 136.271 40.8504 136.367 40.8577 136.462H40.7587C40.5827 136.213 40.2417 136.062 39.7357 136.011C39.6771 136.004 39.2847 136 38.5587 136H35.8747C35.2147 136 34.8297 136.004 34.7197 136.011C34.1624 136.048 33.7701 136.198 33.5427 136.462H33.4657C33.4804 136.352 33.4914 136.249 33.4987 136.154C33.5061 136.051 33.5061 135.971 33.4987 135.912L33.4657 135.472ZM34.6427 135.472H39.3507L37.0297 129.708H36.9857C36.6704 130.39 36.4064 130.984 36.1937 131.49C35.6144 132.854 35.0974 134.181 34.6427 135.472ZM46.6657 136.165C45.463 136.165 44.4877 135.817 43.7397 135.12C42.9917 134.416 42.6177 133.466 42.6177 132.271C42.6177 131.09 42.999 130.141 43.7617 129.422C44.5243 128.703 45.4997 128.344 46.6877 128.344C47.8903 128.344 48.873 128.663 49.6357 129.301C50.4497 129.983 50.8567 130.918 50.8567 132.106C50.8567 133.331 50.4643 134.313 49.6797 135.054C48.9023 135.795 47.8977 136.165 46.6657 136.165ZM49.7787 132.194C49.7787 131.153 49.5477 130.346 49.0857 129.774C48.5137 129.063 47.751 128.707 46.7977 128.707C45.7783 128.707 44.9937 129.077 44.4437 129.818C43.945 130.485 43.6957 131.347 43.6957 132.403C43.6957 133.386 43.945 134.185 44.4437 134.801C44.9863 135.468 45.738 135.802 46.6987 135.802C47.7253 135.802 48.5283 135.355 49.1077 134.46C49.555 133.771 49.7787 133.015 49.7787 132.194ZM60.7788 128.509H61.0098L61.2958 131.193C61.4571 132.652 61.6588 134.266 61.9008 136.033L61.3838 136L60.8668 136.033C60.7934 135.124 60.6724 133.763 60.5038 131.952C60.4524 131.483 60.3864 130.951 60.3058 130.357C59.4624 131.853 58.8318 133.008 58.4138 133.822C58.0911 134.46 57.7611 135.157 57.4238 135.912H57.3028L56.6978 134.669C56.5364 134.324 56.3018 133.848 55.9938 133.239L55.2348 131.787C54.9928 131.332 54.7398 130.856 54.4758 130.357L54.1128 133.536C53.9954 134.57 53.9368 135.402 53.9368 136.033L53.5518 136L53.1558 136.033C53.6911 132.711 54.0431 130.203 54.2118 128.509H54.4978C54.7251 128.964 55.0368 129.576 55.4328 130.346C56.3201 132.055 57.0461 133.364 57.6108 134.273L60.7788 128.509ZM74.5067 128.509L72.0097 130.907L71.0747 131.853C71.6833 132.513 72.5743 133.521 73.7477 134.878L74.6387 135.978V136.033L74.0337 136L73.4177 136.033C73.337 135.916 73.216 135.743 73.0547 135.516C72.974 135.413 72.842 135.252 72.6587 135.032L70.2607 132.227C70.246 132.205 70.1983 132.187 70.1177 132.172C70.103 132.172 70.0883 132.179 70.0737 132.194V136.033L69.5897 136L69.1057 136.033V128.509L69.5897 128.542L70.0737 128.509V131.908C70.0883 131.93 70.1067 131.941 70.1287 131.941C70.1507 131.941 70.169 131.937 70.1837 131.93C70.2497 131.915 70.3083 131.882 70.3597 131.831C70.4843 131.714 70.675 131.538 70.9317 131.303L73.6377 128.509L74.0777 128.542L74.5067 128.509ZM78.1183 132.579V136.033L77.6343 136L77.1503 136.033V128.509H79.1193C80.0286 128.509 80.6739 128.593 81.0553 128.762C81.6566 129.019 81.9573 129.536 81.9573 130.313C81.9573 131.002 81.7263 131.53 81.2643 131.897C80.9123 132.183 80.3586 132.403 79.6033 132.557C79.4273 132.594 79.2073 132.612 78.9433 132.612C78.6353 132.612 78.3603 132.601 78.1183 132.579ZM78.1183 128.938V132.15C78.1329 132.157 78.2319 132.161 78.4153 132.161C78.4593 132.168 78.5289 132.172 78.6243 132.172H79.0203C79.1376 132.157 79.1999 132.15 79.2073 132.15C79.7279 132.099 80.1459 131.919 80.4613 131.611C80.7839 131.296 80.9453 130.881 80.9453 130.368C80.9453 130.038 80.8609 129.737 80.6923 129.466C80.5089 129.158 80.2596 128.989 79.9443 128.96C79.7316 128.938 79.5263 128.927 79.3283 128.927H78.9653C78.6646 128.927 78.5143 128.927 78.5143 128.927C78.3236 128.934 78.1916 128.938 78.1183 128.938ZM87.5477 128.344L90.8477 136.033L90.2757 136L89.6927 136.033C89.414 135.226 89.1903 134.621 89.0217 134.218C88.8603 133.815 88.699 133.43 88.5377 133.063H85.7437C85.4063 133.906 85.168 134.511 85.0287 134.878C84.9407 135.105 84.816 135.49 84.6547 136.033L84.2477 136L83.8627 136.033L87.2947 128.344H87.5477ZM88.3727 132.601L87.1517 129.785L85.9527 132.601H88.3727ZM99.0255 134.845L98.9705 135.538C98.3618 135.956 97.5515 136.165 96.5395 136.165C95.3368 136.165 94.3908 135.813 93.7015 135.109C93.0122 134.398 92.6675 133.437 92.6675 132.227C92.6675 131.024 93.0672 130.067 93.8665 129.356C94.6292 128.681 95.6118 128.344 96.8145 128.344C97.6285 128.344 98.4168 128.513 99.1795 128.85C99.0842 129.085 99.0072 129.367 98.9485 129.697L98.8715 129.708C98.7908 129.605 98.6478 129.481 98.4425 129.334C97.8998 128.953 97.3425 128.762 96.7705 128.762C95.8025 128.762 95.0435 129.114 94.4935 129.818C93.9948 130.456 93.7455 131.274 93.7455 132.271C93.7455 133.246 93.9875 134.053 94.4715 134.691C95.0068 135.388 95.7475 135.736 96.6935 135.736C97.5588 135.736 98.3362 135.439 99.0255 134.845ZM105.416 136.165C104.214 136.165 103.238 135.817 102.49 135.12C101.742 134.416 101.368 133.466 101.368 132.271C101.368 131.09 101.75 130.141 102.512 129.422C103.275 128.703 104.25 128.344 105.438 128.344C106.641 128.344 107.624 128.663 108.386 129.301C109.2 129.983 109.607 130.918 109.607 132.106C109.607 133.331 109.215 134.313 108.43 135.054C107.653 135.795 106.648 136.165 105.416 136.165ZM108.529 132.194C108.529 131.153 108.298 130.346 107.836 129.774C107.264 129.063 106.502 128.707 105.548 128.707C104.529 128.707 103.744 129.077 103.194 129.818C102.696 130.485 102.446 131.347 102.446 132.403C102.446 133.386 102.696 134.185 103.194 134.801C103.737 135.468 104.489 135.802 105.449 135.802C106.476 135.802 107.279 135.355 107.858 134.46C108.306 133.771 108.529 133.015 108.529 132.194ZM114.986 129.037V136.033L114.502 136L114.018 136.033V129.037C113.292 129.037 112.489 129.081 111.609 129.169L111.642 128.839L111.609 128.509H117.285L117.252 128.839L117.285 129.169C116.552 129.081 115.786 129.037 114.986 129.037ZM120.78 132.337V135.549H121.869C122.389 135.498 122.807 135.318 123.123 135.01C123.445 134.695 123.607 134.28 123.607 133.767C123.607 133.437 123.522 133.136 123.354 132.865C123.17 132.557 122.921 132.388 122.606 132.359C122.393 132.337 122.188 132.326 121.99 132.326H121.627C121.326 132.326 121.176 132.326 121.176 132.326C120.985 132.333 120.853 132.337 120.78 132.337ZM120.78 128.509V131.908H121.781C122.69 131.908 123.335 131.992 123.717 132.161C124.318 132.418 124.619 132.935 124.619 133.712C124.619 134.423 124.395 134.959 123.948 135.318C123.588 135.619 123.027 135.831 122.265 135.956C122.037 135.993 121.524 136.011 120.725 136.011H120.417C120.248 136.011 120.131 136.007 120.065 136H119.812V128.509L120.296 128.542L120.78 128.509ZM125.62 136.033V128.509L126.104 128.542C126.265 128.549 126.426 128.538 126.588 128.509V136.033L126.104 136L125.62 136.033ZM134.268 136.033V128.509C134.378 128.546 134.54 128.557 134.752 128.542L135.236 128.509V134.251H135.346L140.351 128.509H140.835V136.033L140.351 136L139.867 136.033V130.027H139.757L134.598 136.033H134.268ZM150.313 131.787H153.36C153.28 130.892 152.986 130.174 152.48 129.631C151.945 129.052 151.237 128.762 150.357 128.762C149.866 128.762 149.393 128.894 148.938 129.158C148.623 129.341 148.396 129.525 148.256 129.708L148.179 129.697C148.113 129.352 148.036 129.07 147.948 128.85C148.711 128.513 149.499 128.344 150.313 128.344C151.509 128.344 152.491 128.681 153.261 129.356C154.061 130.06 154.46 131.017 154.46 132.227C154.46 133.444 154.116 134.405 153.426 135.109C152.744 135.813 151.798 136.165 150.588 136.165C149.584 136.165 148.773 135.956 148.157 135.538L148.102 134.845C148.814 135.439 149.591 135.736 150.434 135.736C151.38 135.736 152.121 135.388 152.656 134.691C153.14 134.053 153.382 133.246 153.382 132.271H150.313C150.203 132.271 150.038 132.282 149.818 132.304C149.606 132.319 149.444 132.326 149.334 132.326L149.367 132.018L149.334 131.732C149.444 131.732 149.606 131.743 149.818 131.765C150.038 131.78 150.203 131.787 150.313 131.787ZM162.974 134.845L162.919 135.538C162.31 135.956 161.5 136.165 160.488 136.165C159.285 136.165 158.339 135.813 157.65 135.109C156.961 134.398 156.616 133.437 156.616 132.227C156.616 131.024 157.016 130.067 157.815 129.356C158.578 128.681 159.56 128.344 160.763 128.344C161.577 128.344 162.365 128.513 163.128 128.85C163.033 129.085 162.956 129.367 162.897 129.697L162.82 129.708C162.739 129.605 162.596 129.481 162.391 129.334C161.848 128.953 161.291 128.762 160.719 128.762C159.751 128.762 158.992 129.114 158.442 129.818C157.943 130.456 157.694 131.274 157.694 132.271C157.694 133.246 157.936 134.053 158.42 134.691C158.955 135.388 159.696 135.736 160.642 135.736C161.507 135.736 162.285 135.439 162.974 134.845ZM168.452 129.037V136.033L167.968 136L167.484 136.033V129.037C166.758 129.037 165.955 129.081 165.075 129.169L165.108 128.839L165.075 128.509H170.751L170.718 128.839L170.751 129.169C170.018 129.081 169.251 129.037 168.452 129.037ZM174.234 129.026V131.787H175.939C176.049 131.787 176.211 131.78 176.423 131.765C176.643 131.743 176.808 131.732 176.918 131.732L176.885 132.018L176.918 132.326C176.808 132.326 176.643 132.319 176.423 132.304C176.211 132.282 176.049 132.271 175.939 132.271H174.234V135.483C174.293 135.483 174.678 135.476 175.389 135.461L176.225 135.439C176.489 135.439 176.827 135.406 177.237 135.34L177.204 135.67L177.237 136H173.266V128.509H177.171L177.138 128.839L177.171 129.169C176.797 129.096 176.467 129.055 176.181 129.048L175.081 129.026H174.234ZM182.704 129.037V136.033L182.22 136L181.736 136.033V129.037C181.01 129.037 180.207 129.081 179.327 129.169L179.36 128.839L179.327 128.509H185.003L184.97 128.839L185.003 129.169C184.27 129.081 183.504 129.037 182.704 129.037ZM187.53 136.033V128.509C187.64 128.546 187.801 128.557 188.014 128.542L188.498 128.509V134.251H188.608L193.613 128.509H194.097V136.033L193.613 136L193.129 136.033V130.027H193.019L187.86 136.033H187.53ZM202.812 128.509L200.315 130.907L199.38 131.853C199.989 132.513 200.88 133.521 202.053 134.878L202.944 135.978V136.033L202.339 136L201.723 136.033C201.643 135.916 201.522 135.743 201.36 135.516C201.28 135.413 201.148 135.252 200.964 135.032L198.566 132.227C198.552 132.205 198.504 132.187 198.423 132.172C198.409 132.172 198.394 132.179 198.379 132.194V136.033L197.895 136L197.411 136.033V128.509L197.895 128.542L198.379 128.509V131.908C198.394 131.93 198.412 131.941 198.434 131.941C198.456 131.941 198.475 131.937 198.489 131.93C198.555 131.915 198.614 131.882 198.665 131.831C198.79 131.714 198.981 131.538 199.237 131.303L201.943 128.509L202.383 128.542L202.812 128.509ZM205.456 136.033V128.509C205.566 128.546 205.727 128.557 205.94 128.542L206.424 128.509V134.251H206.534L211.539 128.509H212.023V136.033L211.539 136L211.055 136.033V130.027H210.945L205.786 136.033H205.456Z" fill="#73AEBE"/>
</svg>
