<svg width="218" height="137" viewBox="0 0 218 137" fill="none" xmlns="http://www.w3.org/2000/svg">
<path fill-rule="evenodd" clip-rule="evenodd" d="M217.411 116.819H199.348V88.5272H202.961V103.417V114.691H204.661H217.411V116.819ZM184.047 116.819H164.921V88.5272H183.197V90.8671H180.01H168.534V101.078H177.885H181.072V102.779H178.097H168.534V114.691H179.797H184.047V116.819ZM140.483 90.6544V109.161V116.819H136.87V115.33V90.6544H131.982H126.032V88.3145H151.533V90.6544H140.483ZM95.4307 110.012H98.8309C99.0434 115.755 106.056 116.819 109.881 114.479C111.369 113.628 112.219 112.139 112.219 110.437C112.219 108.735 111.581 107.459 110.519 106.608C109.881 105.97 108.394 105.332 106.056 104.481C103.081 103.417 101.381 102.567 100.743 102.354C99.0434 101.503 97.7683 100.652 96.9183 99.8012C96.0682 98.7376 95.4307 97.2486 95.4307 95.5469C95.4307 85.5492 113.919 85.1238 113.919 95.3342H110.519C110.306 89.8035 104.356 88.5272 100.531 91.2925C99.4684 91.9307 98.8309 92.9943 98.6184 93.8451C98.6184 94.0579 98.6184 94.2706 98.6184 94.696C98.6184 96.3977 99.6809 97.674 101.593 98.7376C102.231 98.9503 104.144 99.8012 107.544 101.078C109.244 101.716 110.519 102.354 111.369 102.779C112.006 103.205 112.432 103.417 112.857 103.63C114.557 104.906 115.407 106.821 115.407 108.948C115.407 111.501 114.344 113.415 112.432 115.117C107.969 118.946 95.4307 118.52 95.4307 110.012ZM80.7675 116.819H77.1548V115.33V89.8035V88.3145H80.7675V116.819ZM64.4042 116.819C63.7667 117.031 62.9167 117.244 61.8541 117.244C60.154 117.244 58.879 116.819 58.0289 115.968C57.3914 115.33 55.9038 113.415 53.5662 110.012C51.6536 107.034 50.3786 105.332 49.9536 104.906C49.5285 104.481 49.1035 104.268 48.466 104.268H45.0658V115.33V116.819H41.4532V88.5272H50.5911C53.7787 88.5272 56.3289 89.3781 57.8164 91.0798C59.0915 92.3561 59.729 94.0579 59.729 95.9723C59.729 97.8868 59.0915 99.3758 58.0289 100.865C56.7539 102.567 54.8413 103.417 52.5037 103.417H51.8662V103.63L52.7162 103.843C53.1412 104.056 53.5662 104.481 53.9913 104.906C55.0538 106.821 56.5414 109.161 58.454 111.926C59.304 113.202 60.154 114.053 60.5791 114.479C61.4291 115.117 62.2791 115.542 63.3417 115.542H64.1917V116.819H64.4042ZM55.9038 96.185C55.9038 94.4833 55.2663 92.9943 53.9913 91.9307C52.7162 90.8671 51.2286 90.229 49.1035 90.229H45.0658V102.567H49.316C51.2286 102.567 52.9287 101.928 54.2038 100.439C55.2663 99.1631 55.9038 97.8868 55.9038 96.185ZM27.0025 116.819H22.9648L19.1396 108.523H5.75147L2.35131 116.819H0.438721L12.3393 88.3145H14.0394L27.0025 116.819ZM18.5021 106.608L12.5518 93.4197H12.1268L6.60151 106.608H18.5021Z" fill="#595959"/>
<path fill-rule="evenodd" clip-rule="evenodd" d="M80.7675 0.887939V74.2752H136.658V0.887939H80.7675ZM108.394 66.192C106.056 63.0012 104.569 59.8105 103.506 56.407C102.231 51.94 102.019 47.4729 102.231 43.0059C102.444 41.0914 102.656 39.177 103.081 37.2625C103.506 34.4972 104.144 31.9446 104.781 29.392C104.994 28.3284 105.206 27.4775 105.419 26.414C106.056 24.0741 106.906 19.607 106.906 19.607C107.119 17.9053 107.331 16.2035 107.331 14.7145C107.331 12.1619 106.481 10.2475 104.781 8.97118C103.506 7.90759 102.231 7.48216 100.743 7.69488C97.7683 8.12031 94.7932 10.4602 94.7932 10.4602C101.168 1.95153 111.581 5.78043 113.919 14.7145C114.344 16.2035 114.557 17.6926 114.557 19.607L115.407 19.3943C114.982 22.3723 114.132 24.9249 113.282 26.6267C112.644 27.6903 112.219 28.5411 111.581 29.6047C110.094 31.9446 108.181 34.0718 106.694 37.4752C106.056 38.7515 105.631 40.2405 104.994 41.9423C106.056 39.6024 107.544 38.5388 109.031 37.4752C110.944 35.9862 113.069 34.2845 115.407 30.0301C115.194 32.7955 114.769 35.3481 113.919 37.4752C113.282 39.6024 112.219 41.5168 111.369 43.2186C109.031 47.6856 106.694 51.7272 106.481 56.6197C106.481 59.3851 107.119 62.5758 109.244 66.4047C110.094 67.8937 111.156 69.5955 112.644 71.5099C111.156 69.5955 109.669 67.8937 108.394 66.192ZM120.294 62.7885C118.807 63.8521 117.532 65.1284 116.682 66.192C114.132 69.3827 113.919 71.9353 113.494 70.8717C112.857 69.17 112.432 67.681 112.432 66.192C112.644 63.214 114.982 61.2995 120.719 60.2359C124.332 59.5978 126.457 58.3215 120.294 62.7885Z" fill="#73AEBE"/>
<path d="M20.2021 135.538H20.6272L21.2647 133.836L22.1147 131.921L22.9648 130.007C23.1773 129.369 23.3898 128.943 23.3898 128.731H23.8148L24.6648 130.858L25.7274 133.623L26.5774 135.325H27.0025C27.0025 135.538 27.0025 135.538 27.0025 135.75C27.0025 135.963 27.0025 136.176 27.0025 136.176C26.7899 135.963 26.5774 135.75 26.3649 135.75C26.1524 135.75 25.5149 135.75 24.8774 135.75H22.3272C22.1147 135.75 21.9022 135.75 21.9022 135.75C21.6897 135.75 21.4772 135.75 21.2647 135.75C21.0522 135.75 21.0522 135.75 20.8397 135.75C20.6272 135.75 20.6272 135.75 20.4146 135.75C20.2021 135.75 19.9896 135.963 19.9896 135.963C19.9896 135.963 19.9896 135.75 19.9896 135.538H20.2021ZM21.2647 135.538H25.7274L25.3024 134.261L24.4523 132.134L23.8148 130.645L23.6023 130.007L22.9648 131.283L22.3272 132.56C22.1147 133.198 21.9022 133.623 21.6897 134.049C21.6897 134.474 21.4772 134.899 21.2647 135.538ZM33.1652 136.176C32.5277 136.176 32.1027 136.176 31.4652 135.963C31.0401 135.75 30.6151 135.538 30.1901 135.112C29.7651 134.687 29.5526 134.474 29.3401 133.836C29.3401 133.623 29.1276 133.41 29.1276 133.198C29.1276 132.985 29.1276 132.772 29.1276 132.347C29.1276 131.709 29.1276 131.283 29.3401 130.858C29.5526 130.432 29.7651 130.007 30.1901 129.581C30.6151 129.156 31.0401 128.943 31.4652 128.731C31.8902 128.518 32.5277 128.518 32.9527 128.518C33.3778 128.518 34.0153 128.518 34.4403 128.731C34.8653 128.943 35.2903 129.156 35.7154 129.369C36.1404 129.581 36.3529 130.007 36.5654 130.432C36.7779 130.858 36.9904 131.496 36.9904 132.134C36.9904 132.985 36.7779 133.623 36.5654 134.261C36.1404 134.899 35.7154 135.325 35.0778 135.75C34.6528 135.963 34.0153 136.176 33.1652 136.176ZM36.1404 132.347C36.1404 131.921 36.1404 131.709 36.1404 131.496C36.1404 131.283 36.1404 131.07 35.9279 130.645C35.9279 130.432 35.7154 130.22 35.5029 130.007C35.2903 129.794 35.0778 129.581 34.8653 129.369C34.6528 129.156 34.4403 129.156 34.0153 128.943C33.8028 128.943 33.3778 128.731 33.1652 128.731C32.7402 128.731 32.3152 128.731 31.8902 128.943C31.4652 129.156 31.2527 129.369 31.0401 129.581C30.8276 129.794 30.6151 130.22 30.4026 130.645C30.1901 131.07 30.1901 131.496 30.1901 132.134C30.1901 132.56 30.1901 133.198 30.4026 133.623C30.6151 134.049 30.8276 134.474 31.0401 134.687C31.2527 134.899 31.6777 135.112 31.8902 135.325C32.3152 135.538 32.5277 135.538 32.9527 135.538C33.3778 135.538 33.8028 135.325 34.2278 135.112C34.6528 134.899 34.8653 134.687 35.0778 134.261C35.2903 133.836 35.5029 133.623 35.7154 133.198C36.1404 133.198 36.1404 132.772 36.1404 132.347ZM46.9784 128.731H47.1909L47.4034 130.432C47.4034 131.07 47.6159 131.709 47.6159 132.347L47.8284 134.049L48.0409 135.75H47.8284H47.6159H47.4034H47.1909H46.9784C46.9784 135.538 46.9784 135.112 46.9784 134.687C46.9784 134.474 46.9784 134.261 46.9784 134.049L46.7659 132.56L46.5534 131.283C46.5534 130.858 46.5534 130.432 46.3409 130.22C46.1284 130.645 45.9158 131.07 45.7033 131.283C45.4908 131.709 45.2783 131.921 45.0658 132.347C44.8533 132.56 44.8533 132.772 44.8533 132.985C44.8533 132.985 44.6408 133.198 44.6408 133.623C44.6408 133.836 44.4283 134.049 44.4283 134.261C44.2158 134.899 44.0033 135.325 43.7907 135.75H43.5782L42.9407 134.474C42.7282 134.261 42.7282 133.836 42.5157 133.623C42.3032 133.41 42.0907 132.985 41.8782 132.56L40.8156 130.432C40.8156 130.645 40.8156 131.07 40.8156 131.283C40.8156 131.496 40.8156 131.709 40.8156 132.134L40.6031 133.623L40.3906 135.112C40.3906 135.325 40.3906 135.325 40.3906 135.538C40.3906 135.75 40.3906 135.963 40.3906 135.963H40.1781H39.9656H39.7531H39.5405L39.9656 133.836L40.3906 130.858C40.6031 129.794 40.6031 129.156 40.6031 128.731H40.8156L41.6656 130.22L42.3032 131.283L43.1532 132.772C43.3657 133.198 43.5782 133.41 43.5782 133.623C43.7907 133.836 43.7907 134.049 44.0033 134.474L44.8533 132.985L45.9158 130.858C46.1284 130.645 46.3409 130.22 46.3409 130.007C46.5534 129.794 46.5534 129.581 46.7659 129.369C46.7659 129.156 46.9784 128.943 46.9784 128.731ZM60.579 128.731L58.2414 131.071L57.3914 131.921L58.2414 132.985L59.304 134.049L59.9415 134.899L60.7915 135.963H60.579H60.3665H60.154H59.729C59.5165 135.538 59.304 135.325 59.0915 134.899L56.7539 132.134C56.7539 132.134 56.7539 132.134 56.5413 132.134V135.75H56.3288C56.3288 135.75 56.3288 135.75 56.1163 135.75H55.9038H55.6913H55.4788V128.518H55.6913H55.9038H56.1163H56.3288V131.709H56.5413L56.7539 131.496C56.7539 131.496 56.9664 131.283 57.1789 131.071L59.729 128.305H59.9415H60.154H60.3665L60.579 128.731ZM64.4042 132.772V136.176H64.1917C64.1917 136.176 64.1917 136.176 63.9792 136.176H63.7667H63.5542H63.3417V128.943H65.2543C65.8918 128.943 66.5293 128.943 66.9543 129.156C67.3794 129.369 67.5919 129.369 67.8044 129.794C68.0169 130.007 68.0169 130.432 68.0169 130.858C68.0169 131.283 68.0169 131.709 67.8044 131.921C67.5919 132.134 67.3794 132.347 66.9543 132.56C66.5293 132.772 66.1043 132.772 65.6793 132.985H65.4668C65.2543 132.985 65.2543 132.985 65.0417 132.985H64.4042V132.772ZM64.4042 129.156V132.347H64.8292H65.0417C65.2543 132.347 65.2543 132.347 65.4668 132.347C65.8918 132.347 66.1043 132.134 66.3168 132.134C66.5293 131.921 66.7418 131.709 66.9543 131.496C67.1668 131.283 67.1668 131.07 67.1668 130.645C67.1668 130.432 67.1668 130.22 66.9543 130.007C66.9543 129.794 66.7418 129.581 66.5293 129.581C66.3168 129.369 66.1043 129.369 65.8918 129.369H65.6793C65.4668 129.369 65.2543 129.369 65.2543 129.369C65.0417 129.369 65.0417 129.369 64.8292 129.369C64.4042 129.156 64.4042 129.156 64.4042 129.156ZM73.7547 128.731L76.9423 136.176H76.7298H76.5173H76.3048H76.0923H75.8798C75.6672 135.75 75.6672 135.325 75.4547 135.112C75.4547 134.899 75.2422 134.687 75.2422 134.687C75.0297 134.261 74.8172 133.836 74.6047 133.41H71.8421L71.6296 133.836L71.417 134.687L71.2045 135.325L70.992 135.963H70.7795H70.567H70.3545H70.142L73.5421 128.518H73.7547V128.731ZM74.3922 132.772L73.1171 130.007L72.0546 132.772H74.3922ZM85.0177 134.899V135.538C84.8052 135.75 84.5927 135.75 84.3802 135.963C84.1676 135.963 83.9551 136.176 83.5301 136.176C83.3176 136.176 82.8926 136.176 82.6801 136.176C82.0425 136.176 81.6175 136.176 81.1925 135.963C80.7675 135.75 80.3425 135.538 79.9174 135.112C79.4924 134.687 79.2799 134.474 79.2799 133.836C79.0674 133.41 79.0674 132.772 79.0674 132.347C79.0674 131.496 79.2799 130.858 79.4924 130.432C79.9174 129.794 80.3425 129.369 80.98 129.156C81.6175 128.943 82.2551 128.731 83.1051 128.731C83.3176 128.731 83.5301 128.731 83.9551 128.731C84.1676 128.731 84.3802 128.731 84.8052 128.943C85.0177 128.943 85.2302 129.156 85.4427 129.156C85.4427 129.369 85.2302 129.581 85.2302 130.007C85.2302 129.794 85.0177 129.794 84.8052 129.581C84.5927 129.369 84.3802 129.369 84.1676 129.156C83.9551 128.943 83.5301 128.943 83.3176 128.943C82.6801 128.943 82.2551 129.156 81.83 129.369C81.405 129.581 80.98 130.007 80.7675 130.645C80.555 131.07 80.3425 131.709 80.3425 132.347C80.3425 132.985 80.555 133.623 80.7675 134.049C80.98 134.474 81.405 134.899 81.83 135.325C82.2551 135.538 82.6801 135.75 83.3176 135.75C83.7426 135.75 83.9551 135.75 84.3802 135.538C84.5927 135.538 85.0177 135.325 85.2302 135.112C84.5927 135.112 84.8052 135.112 85.0177 134.899ZM91.393 136.176C90.7555 136.176 90.3304 136.176 89.6929 135.963C89.2679 135.75 88.8429 135.538 88.4178 135.112C87.9928 134.687 87.7803 134.474 87.5678 133.836C87.5678 133.623 87.3553 133.41 87.3553 133.198C87.3553 132.985 87.3553 132.772 87.3553 132.347C87.3553 131.709 87.3553 131.283 87.5678 130.858C87.7803 130.432 87.9928 130.007 88.4178 129.581C88.8429 129.156 89.2679 128.943 89.6929 128.731C90.1179 128.518 90.7555 128.518 91.1805 128.518C91.6055 128.518 92.243 128.518 92.6681 128.731C93.0931 128.943 93.5181 129.156 93.9431 129.369C94.3681 129.581 94.5806 130.007 94.7932 130.432C95.0057 130.858 95.2182 131.496 95.2182 132.134C95.2182 132.985 95.0057 133.623 94.7932 134.261C94.3681 134.899 93.9431 135.325 93.3056 135.75C92.8806 135.963 92.0305 136.176 91.393 136.176ZM94.3681 132.347C94.3681 131.921 94.3681 131.709 94.3681 131.496C94.3681 131.283 94.3681 131.07 94.1556 130.645C94.1556 130.432 93.9431 130.22 93.7306 130.007C93.5181 129.794 93.3056 129.581 93.0931 129.369C92.8806 129.369 92.4555 129.156 92.243 129.156C92.0305 129.156 91.6055 128.943 91.393 128.943C90.968 128.943 90.5429 128.943 90.1179 129.156C89.6929 129.369 89.4804 129.581 89.2679 129.794C89.0554 130.007 88.8429 130.432 88.6304 130.858C88.4178 131.283 88.4178 131.709 88.4178 132.347C88.4178 132.772 88.4178 133.41 88.6304 133.836C88.8429 134.261 89.0554 134.687 89.2679 134.899C89.4804 135.112 89.9054 135.325 90.1179 135.538C90.5429 135.75 90.7555 135.75 91.1805 135.75C91.6055 135.75 92.0305 135.538 92.4555 135.325C92.8806 135.112 93.0931 134.899 93.3056 134.474C93.5181 134.049 93.7306 133.836 93.9431 133.41C94.1556 133.198 94.3681 132.772 94.3681 132.347ZM100.743 129.369V136.176C100.531 136.176 100.318 136.176 100.318 136.176C100.106 136.176 100.106 136.176 99.8934 136.176V129.369C99.2559 129.369 98.4058 129.369 97.5558 129.581V129.369V129.156V128.943H103.081V129.156V129.369V129.581V129.794H102.018C101.806 129.794 101.806 129.794 101.593 129.794C101.168 129.369 100.956 129.369 100.743 129.369ZM106.481 132.56V135.538H107.544C107.969 135.538 108.181 135.325 108.394 135.325C108.606 135.112 108.819 134.899 109.031 134.687C109.244 134.474 109.244 134.261 109.244 133.836C109.244 133.41 109.244 133.198 109.031 132.985C108.819 132.772 108.606 132.56 108.181 132.56H107.969C107.969 132.56 107.756 132.56 107.544 132.56H107.119H106.481ZM106.481 128.731V131.921H107.544C108.181 131.921 108.819 131.921 109.244 132.134C109.669 132.347 109.881 132.347 110.094 132.772C110.306 132.985 110.306 133.41 110.306 133.836C110.306 134.474 110.094 134.899 109.669 135.325C109.244 135.75 108.819 135.963 107.969 135.963C107.969 135.963 107.756 135.963 107.544 135.963C107.331 135.963 106.906 135.963 106.694 135.963H106.481C106.269 135.963 106.269 135.963 106.269 135.963H105.631V128.731H105.844H106.056H106.269H106.481ZM111.156 136.176V128.943C111.369 128.943 111.369 128.943 111.581 128.943C111.794 128.943 112.006 128.943 112.006 128.943V136.176H111.794H111.581H111.369H111.156ZM120.082 136.176V128.943C120.082 128.943 120.294 128.943 120.507 128.943H120.932V134.474L125.82 128.943H126.245V136.176C126.032 136.176 125.82 136.176 125.82 136.176C125.82 136.176 125.607 136.176 125.395 136.176V130.432H125.182L120.932 135.538C120.719 135.75 120.507 135.963 120.294 136.176H120.082ZM135.808 131.921H138.783C138.783 131.283 138.57 130.858 138.358 130.432C138.145 130.007 137.72 129.581 137.295 129.369C136.87 129.156 136.445 128.943 135.808 128.943C135.595 128.943 135.383 128.943 135.17 129.156C135.17 129.156 134.958 129.156 134.958 129.369C134.958 129.369 134.745 129.369 134.745 129.581C134.533 129.581 134.32 129.794 134.32 129.794C134.107 129.794 134.108 130.007 134.108 130.007C134.108 129.794 133.895 129.369 133.895 129.156C134.108 129.156 134.32 128.943 134.533 128.943C134.745 128.943 134.745 128.943 134.958 128.943C135.17 128.943 135.17 128.943 135.383 128.943C135.595 128.943 135.808 128.943 136.233 128.943C137.083 128.943 137.72 129.156 138.358 129.369C138.995 129.581 139.42 130.007 139.845 130.645C140.27 131.283 140.27 131.921 140.27 132.56C140.27 133.198 140.27 133.623 140.058 134.049C139.845 134.474 139.633 134.899 139.42 135.325C138.995 135.75 138.783 135.963 138.145 136.176C137.72 136.388 137.083 136.388 136.658 136.388C136.445 136.388 136.233 136.388 136.02 136.388C135.808 136.388 135.595 136.388 135.383 136.176C134.958 136.176 134.533 135.963 134.32 135.75V135.112C134.533 135.325 134.958 135.538 135.17 135.75C135.595 135.963 136.02 135.963 136.445 135.963C136.87 135.963 137.295 135.963 137.508 135.75C137.933 135.538 138.145 135.325 138.358 135.112C138.57 134.899 138.783 134.474 138.995 134.049C138.995 133.836 139.208 133.623 139.208 133.41C139.208 133.198 139.208 132.985 139.208 132.772H136.233H136.02H135.808H135.383V132.56V132.347V132.134H135.808V131.921ZM148.346 134.899V135.538C148.133 135.75 147.921 135.75 147.708 135.963C147.496 135.963 147.283 136.176 146.858 136.176C146.646 136.176 146.221 136.176 146.008 136.176C145.371 136.176 144.946 136.176 144.521 135.963C144.095 135.75 143.67 135.538 143.245 135.112C142.82 134.687 142.608 134.474 142.608 133.836C142.395 133.41 142.395 132.772 142.395 132.347C142.395 131.496 142.608 130.858 142.82 130.432C143.245 129.794 143.67 129.369 144.308 129.156C144.946 128.943 145.583 128.731 146.433 128.731C146.646 128.731 146.858 128.731 147.283 128.731C147.496 128.731 147.708 128.731 148.133 128.943C148.346 128.943 148.558 129.156 148.771 129.156C148.771 129.369 148.558 129.581 148.558 130.007C148.558 129.794 148.346 129.794 148.133 129.581C147.921 129.369 147.708 129.369 147.496 129.156C147.283 128.943 146.858 128.943 146.646 128.943C146.008 128.943 145.583 129.156 145.158 129.369C144.733 129.581 144.308 130.007 144.095 130.645C143.883 131.07 143.67 131.709 143.67 132.347C143.67 132.985 143.883 133.623 144.095 134.049C144.308 134.474 144.733 134.899 145.158 135.325C145.583 135.538 146.008 135.75 146.646 135.75C147.071 135.75 147.283 135.75 147.708 135.538C147.921 135.538 148.346 135.325 148.558 135.112C147.921 135.112 148.133 135.112 148.346 134.899ZM153.871 129.369V136.176C153.658 136.176 153.446 136.176 153.446 136.176C153.233 136.176 153.233 136.176 153.021 136.176V129.369C152.383 129.369 151.533 129.369 150.683 129.581V129.369V129.156V128.943H156.209V129.156V129.369V129.581V129.794H155.146C154.933 129.794 154.933 129.794 154.721 129.794C154.083 129.369 153.871 129.369 153.871 129.369ZM159.609 129.369V132.134H161.309H161.521H161.734H162.159V132.347V132.56V132.772V132.985H161.734H161.521H161.309H159.609V135.538C159.609 135.538 160.034 135.538 160.459 135.538C160.884 135.538 161.309 135.538 161.521 135.538C161.734 135.538 161.734 135.538 161.946 135.538C162.159 135.538 162.371 135.538 162.584 135.538V135.75V135.963V136.176V136.388H158.759V129.156H162.584V129.369V129.581V129.794V130.007C162.371 130.007 162.159 130.007 162.159 130.007C161.946 130.007 161.734 130.007 161.734 130.007H160.671H159.609V129.369ZM167.897 129.369V136.176C167.684 136.176 167.472 136.176 167.472 136.176C167.259 136.176 167.259 136.176 167.047 136.176V129.369C166.409 129.369 165.559 129.369 164.709 129.581V129.369V129.156V128.943H170.234V129.156V129.369V129.581V129.794H169.172C168.959 129.794 168.959 129.794 168.747 129.794C168.322 129.369 168.109 129.369 167.897 129.369ZM172.784 136.176V128.943C172.784 128.943 172.997 128.943 173.209 128.943H173.634V134.474L178.522 128.943H178.947V136.176C178.735 136.176 178.522 136.176 178.522 136.176C178.522 136.176 178.31 136.176 178.097 136.176V130.432H177.885L173.634 135.538C173.422 135.75 173.209 135.963 172.997 136.176H172.784ZM187.873 128.731L185.535 131.071L184.685 131.921L185.535 132.985L186.597 134.049L187.235 134.899L188.085 135.963H187.873H187.66H187.448H187.023C186.81 135.538 186.597 135.325 186.385 134.899L184.047 132.134C184.047 132.134 184.047 132.134 183.835 132.134V135.75H183.622C183.622 135.75 183.622 135.75 183.41 135.75H183.197H182.985H182.772V128.518H182.985H183.197H183.41H183.622V131.709H183.835L184.047 131.496C184.047 131.496 184.26 131.283 184.472 131.071L187.023 128.305H187.235H187.448H187.66L187.873 128.731ZM190.635 136.176V128.943C190.635 128.943 190.848 128.943 191.06 128.943H191.485V134.474L196.373 128.943H196.798V136.176C196.585 136.176 196.373 136.176 196.373 136.176C196.373 136.176 196.16 136.176 195.948 136.176V130.432H195.735L191.273 135.538C191.06 135.75 190.848 135.963 190.635 136.176Z" fill="#434343"/>
</svg>
