<svg width="14" height="13" viewBox="0 0 14 13" fill="none" xmlns="http://www.w3.org/2000/svg">
<path d="M6.72797 0.585705C6.83549 0.354186 7.16463 0.354186 7.27215 0.585706L8.91295 4.11881C8.95666 4.21294 9.04592 4.27779 9.14894 4.29028L13.0162 4.75897C13.2696 4.78969 13.3713 5.10272 13.1843 5.27652L10.3312 7.9288C10.2552 7.99946 10.2211 8.10439 10.241 8.20623L10.9903 12.029C11.0394 12.2795 10.7731 12.473 10.5501 12.3489L7.14591 10.455C7.05522 10.4045 6.9449 10.4045 6.85421 10.455L3.45007 12.3489C3.227 12.473 2.96072 12.2795 3.00982 12.029L3.75909 8.20623C3.77905 8.10439 3.74496 7.99946 3.66895 7.9288L0.815798 5.27652C0.628835 5.10272 0.730546 4.78969 0.983959 4.75897L4.85118 4.29028C4.95421 4.27779 5.04346 4.21294 5.08717 4.11881L6.72797 0.585705Z" fill="white"/>
</svg>
