<svg width="64" height="64" viewBox="0 0 64 64" fill="none" xmlns="http://www.w3.org/2000/svg">
<g clip-path="url(#clip0_3_58)">
<path d="M28.373 13.5458C27.9859 13.1902 27.4743 13.0013 26.9489 13.0199C26.4236 13.0386 25.9267 13.2633 25.5658 13.6455C25.2049 14.0277 25.009 14.5367 25.0204 15.0622C25.0319 15.5878 25.2498 16.0877 25.627 16.4538L42.087 31.9998L25.627 47.5458C25.2498 47.9119 25.0319 48.4119 25.0204 48.9374C25.009 49.4629 25.2049 49.9719 25.5658 50.3541C25.9267 50.7363 26.4236 50.961 26.9489 50.9797C27.4743 50.9984 27.9859 50.8094 28.373 50.4538L46.373 33.4538C46.5708 33.2668 46.7283 33.0414 46.836 32.7914C46.9437 32.5414 46.9992 32.272 46.9992 31.9998C46.9992 31.7276 46.9437 31.4583 46.836 31.2082C46.7283 30.9582 46.5708 30.7328 46.373 30.5458L28.373 13.5458Z" fill="white"/>
<path d="M32 -0.000244141C23.453 -0.000244141 15.417 3.32876 9.374 9.37276C3.329 15.4168 0 23.4528 0 31.9998C0 40.5468 3.33 48.5828 9.374 54.6258C15.417 60.6708 23.453 63.9998 32 63.9998C40.547 63.9998 48.583 60.6708 54.626 54.6268C60.671 48.5828 64 40.5468 64 31.9998C64 23.4528 60.67 15.4168 54.626 9.37376C48.583 3.32876 40.547 -0.000244141 32 -0.000244141ZM51.797 51.7978C46.509 57.0868 39.479 59.9998 32 59.9998C24.521 59.9998 17.491 57.0868 12.202 51.7978C6.913 46.5098 4 39.4788 4 31.9998C4 24.5208 6.913 17.4898 12.203 12.2018C17.491 6.91276 24.521 3.99976 32 3.99976C39.479 3.99976 46.509 6.91276 51.798 12.2018C57.087 17.4898 60 24.5208 60 31.9998C60 39.4788 57.087 46.5098 51.797 51.7978Z" fill="white"/>
</g>
<defs>
<clipPath id="clip0_3_58">
<rect width="64" height="64" fill="white" transform="translate(0 -0.000244141)"/>
</clipPath>
</defs>
</svg>
