<svg width="64" height="64" viewBox="0 0 64 64" fill="none" xmlns="http://www.w3.org/2000/svg">
<g clip-path="url(#clip0_3_55)">
<path d="M35.627 50.4537C36.0141 50.8093 36.5257 50.9982 37.051 50.9796C37.5763 50.9609 38.0732 50.7362 38.4341 50.354C38.795 49.9718 38.991 49.4628 38.9795 48.9373C38.9681 48.4117 38.7502 47.9118 38.373 47.5457L21.913 31.9997L38.373 16.4537C38.7502 16.0876 38.9681 15.5877 38.9795 15.0621C38.991 14.5366 38.795 14.0276 38.4341 13.6454C38.0732 13.2632 37.5763 13.0385 37.051 13.0198C36.5257 13.0012 36.0141 13.1901 35.627 13.5457L17.627 30.5457C17.4292 30.7327 17.2716 30.9581 17.1639 31.2081C17.0562 31.4581 17.0007 31.7275 17.0007 31.9997C17.0007 32.2719 17.0562 32.5413 17.1639 32.7913C17.2716 33.0413 17.4292 33.2667 17.627 33.4537L35.627 50.4537Z" fill="white"/>
<path d="M32 63.9998C40.547 63.9998 48.583 60.6708 54.626 54.6268C60.671 48.5828 64 40.5468 64 31.9998C64 23.4528 60.67 15.4168 54.626 9.37376C48.583 3.32875 40.547 -0.000246191 32 -0.000246938C23.453 -0.000247685 15.417 3.32875 9.37397 9.37275C3.32897 15.4168 -2.69728e-05 23.4528 -2.772e-05 31.9998C-2.84673e-05 40.5468 3.32997 48.5828 9.37397 54.6258C15.417 60.6708 23.453 63.9998 32 63.9998ZM12.203 12.2018C17.491 6.91275 24.521 3.99975 32 3.99975C39.479 3.99975 46.509 6.91275 51.798 12.2018C57.087 17.4898 60 24.5208 60 31.9998C60 39.4788 57.087 46.5098 51.797 51.7978C46.509 57.0868 39.479 59.9998 32 59.9998C24.521 59.9998 17.491 57.0868 12.202 51.7978C6.91297 46.5098 3.99997 39.4788 3.99997 31.9998C3.99997 24.5208 6.91297 17.4898 12.203 12.2018Z" fill="white"/>
</g>
<defs>
<clipPath id="clip0_3_55">
<rect width="64" height="64" fill="white" transform="translate(64 63.9998) rotate(-180)"/>
</clipPath>
</defs>
</svg>
