<svg width="50" height="42" viewBox="0 0 50 42" fill="none" xmlns="http://www.w3.org/2000/svg">
<path d="M11.0001 0.799998C14.0668 0.799998 16.6668 1.93333 18.8001 4.2C20.9334 6.6 22.0001 9.8 22.0001 13.8C22.0001 19.5333 21.1334 24.2 19.4001 27.8C17.6668 31.5333 15.7334 34.4667 13.6001 36.6C11.2001 39 8.33343 40.8 5.00009 42L3.00009 38.8C5.26676 37.7333 7.26676 36.4667 9.00009 35C10.4668 33.6667 11.8668 32.0667 13.2001 30.2C14.4001 28.4667 15.0001 26.3333 15.0001 23.8C15.0001 22.8667 14.8668 22.1333 14.6001 21.6C14.4668 21.2 14.2668 20.9333 14.0001 20.8C13.7334 20.9333 13.3334 21.0667 12.8001 21.2C12.4001 21.3333 12.0001 21.4667 11.6001 21.6C11.0668 21.7333 10.5334 21.8 10.0001 21.8C6.93343 21.8 4.53343 20.8667 2.80009 19C0.933426 17.2667 9.28679e-05 14.8667 9.3136e-05 11.8C9.34041e-05 8.73333 1.06676 6.13333 3.20009 4C5.33343 1.86667 7.93343 0.799997 11.0001 0.799998ZM39.0001 0.8C42.0668 0.8 44.6668 1.93334 46.8001 4.2C48.9334 6.60001 50.0001 9.8 50.0001 13.8C50.0001 19.5333 49.1334 24.2 47.4001 27.8C45.6668 31.5333 43.7334 34.4667 41.6001 36.6C39.2001 39 36.3334 40.8 33.0001 42L31.0001 38.8C33.2668 37.7333 35.2668 36.4667 37.0001 35C38.4668 33.6667 39.8668 32.0667 41.2001 30.2C42.4001 28.4667 43.0001 26.3333 43.0001 23.8C43.0001 22.8667 42.8668 22.1333 42.6001 21.6C42.4668 21.2 42.2668 20.9333 42.0001 20.8C41.7334 20.9333 41.3334 21.0667 40.8001 21.2C40.4001 21.3333 40.0001 21.4667 39.6001 21.6C39.0668 21.7333 38.5334 21.8 38.0001 21.8C34.9334 21.8 32.5334 20.8667 30.8001 19C28.9334 17.2667 28.0001 14.8667 28.0001 11.8C28.0001 8.73333 29.0668 6.13334 31.2001 4.00001C33.3334 1.86667 35.9334 0.8 39.0001 0.8Z" fill="#A6A6A6"/>
</svg>
