<svg width="50" height="42" viewBox="0 0 50 42" fill="none" xmlns="http://www.w3.org/2000/svg">
<path d="M39 41.2C35.9333 41.2 33.3333 40.0667 31.2 37.8C29.0667 35.4 28 32.2 28 28.2C28 22.4667 28.8667 17.8 30.6 14.2C32.3333 10.4667 34.2667 7.53332 36.4 5.39999C38.8 2.99999 41.6667 1.19999 45 -7.62939e-06L47 3.2C44.7333 4.26666 42.7333 5.53333 41 7C39.5333 8.33333 38.1333 9.93333 36.8 11.8C35.6 13.5333 35 15.6667 35 18.2C35 19.1333 35.1333 19.8667 35.4 20.4C35.5333 20.8 35.7333 21.0667 36 21.2C36.2667 21.0667 36.6667 20.9333 37.2 20.8C37.6 20.6667 38 20.5333 38.4 20.4C38.9333 20.2667 39.4667 20.2 40 20.2C43.0667 20.2 45.4667 21.1333 47.2 23C49.0667 24.7333 50 27.1333 50 30.2C50 33.2667 48.9333 35.8667 46.8 38C44.6667 40.1333 42.0667 41.2 39 41.2ZM11 41.2C7.93333 41.2 5.33333 40.0667 3.2 37.8C1.06667 35.4 5.66244e-07 32.2 5.66244e-07 28.2C5.66244e-07 22.4667 0.866667 17.8 2.6 14.2C4.33333 10.4667 6.26667 7.53332 8.4 5.39999C10.8 2.99999 13.6667 1.19999 17 -7.62939e-06L19 3.2C16.7333 4.26666 14.7333 5.53333 13 7C11.5333 8.33333 10.1333 9.93333 8.8 11.8C7.6 13.5333 7 15.6667 7 18.2C7 19.1333 7.13333 19.8667 7.4 20.4C7.53333 20.8 7.73333 21.0667 8 21.2C8.26667 21.0667 8.66667 20.9333 9.2 20.8C9.6 20.6667 10 20.5333 10.4 20.4C10.9333 20.2667 11.4667 20.2 12 20.2C15.0667 20.2 17.4667 21.1333 19.2 23C21.0667 24.7333 22 27.1333 22 30.2C22 33.2667 20.9333 35.8667 18.8 38C16.6667 40.1333 14.0667 41.2 11 41.2Z" fill="#A6A6A6"/>
</svg>
