<svg width="217" height="136" viewBox="0 0 217 136" fill="none" xmlns="http://www.w3.org/2000/svg">
<g opacity="0.55">
<path fill-rule="evenodd" clip-rule="evenodd" d="M216.973 115.931H198.909V87.6394H202.522V102.53V113.804H204.222H216.973V115.931ZM183.609 115.931H164.483V87.6394H182.759V89.9793H179.571H168.095V100.19H177.446H180.634V101.891H177.658H168.095V113.804H179.358H183.609V115.931ZM140.044 89.7666V108.273V115.931H136.431V114.442V89.7666H131.544H125.593V87.4267H151.095V89.7666H140.044ZM94.992 109.124H98.3921C98.6046 114.867 105.617 115.931 109.443 113.591C110.93 112.74 111.78 111.251 111.78 109.549C111.78 107.847 111.143 106.571 110.08 105.72C109.443 105.082 107.955 104.444 105.617 103.593C102.642 102.53 100.942 101.679 100.305 101.466C98.6046 100.615 97.3296 99.7643 96.4796 98.9134C95.6295 97.8498 94.992 96.3608 94.992 94.6591C94.992 84.6614 113.48 84.2359 113.48 94.4463H110.08C109.868 88.9157 103.917 87.6394 100.092 90.4047C99.0297 91.0429 98.3921 92.1065 98.1796 92.9573C98.1796 93.17 98.1796 93.3828 98.1796 93.8082C98.1796 95.5099 99.2422 96.7862 101.155 97.8498C101.792 98.0625 103.705 98.9134 107.105 100.19C108.805 100.828 110.08 101.466 110.93 101.891C111.568 102.317 111.993 102.53 112.418 102.742C114.118 104.019 114.968 105.933 114.968 108.06C114.968 110.613 113.905 112.527 111.993 114.229C107.53 118.058 94.992 117.632 94.992 109.124ZM80.3288 115.931H76.7161V114.442V88.9157V87.4267H80.3288V115.931ZM63.9655 115.931C63.328 116.143 62.4779 116.356 61.4154 116.356C59.7153 116.356 58.4403 115.931 57.5902 115.08C56.9527 114.442 55.4651 112.527 53.1275 109.124C51.2149 106.146 49.9398 104.444 49.5148 104.019C49.0898 103.593 48.6648 103.38 48.0273 103.38H44.6271V114.442V115.931H41.0144V87.6394H50.1524C53.34 87.6394 55.8901 88.4903 57.3777 90.192C58.6528 91.4683 59.2903 93.17 59.2903 95.0845C59.2903 96.9989 58.6528 98.488 57.5902 99.977C56.3152 101.679 54.4026 102.53 52.065 102.53H51.4274V102.742L52.2775 102.955C52.7025 103.168 53.1275 103.593 53.5525 104.019C54.6151 105.933 56.1026 108.273 58.0152 111.038C58.8653 112.315 59.7153 113.165 60.1403 113.591C60.9904 114.229 61.8404 114.654 62.903 114.654H63.753V115.931H63.9655ZM55.4651 95.2972C55.4651 93.5955 54.8276 92.1065 53.5525 91.0429C52.2775 89.9793 50.7899 89.3411 48.6648 89.3411H44.6271V101.679H48.8773C50.7899 101.679 52.49 101.041 53.765 99.5515C54.8276 98.2752 55.4651 96.9989 55.4651 95.2972ZM26.5638 115.931H22.5261L18.7009 107.635H5.31275L1.91259 115.931H0L11.9006 87.4267H13.6006L26.5638 115.931ZM18.0634 105.72L12.1131 92.5319H11.6881L6.16279 105.72H18.0634Z" fill="white"/>
<path fill-rule="evenodd" clip-rule="evenodd" d="M80.3289 -0.00012207V73.3872H136.219V-0.00012207H80.3289ZM107.955 65.3039C105.618 62.1132 104.13 58.9224 103.067 55.519C101.792 51.0519 101.58 46.5849 101.792 42.1178C102.005 40.2033 102.217 38.2889 102.642 36.3744C103.067 33.6091 103.705 31.0565 104.342 28.5039C104.555 27.4403 104.768 26.5895 104.98 25.5259C105.618 23.186 106.468 18.719 106.468 18.719C106.68 17.0172 106.893 15.3155 106.893 13.8265C106.893 11.2739 106.043 9.35942 104.342 8.08312C103.067 7.01953 101.792 6.5941 100.305 6.80681C97.3297 7.23225 94.3545 9.57213 94.3545 9.57213C100.73 1.06346 111.143 4.89237 113.48 13.8265C113.905 15.3155 114.118 16.8045 114.118 18.719L114.968 18.5062C114.543 21.4843 113.693 24.0369 112.843 25.7386C112.205 26.8022 111.78 27.6531 111.143 28.7166C109.655 31.0565 107.743 33.1837 106.255 36.5872C105.618 37.8635 105.193 39.3525 104.555 41.0542C105.618 38.7143 107.105 37.6507 108.593 36.5872C110.505 35.0981 112.63 33.3964 114.968 29.1421C114.755 31.9074 114.33 34.46 113.48 36.5872C112.843 38.7143 111.78 40.6288 110.93 42.3305C108.593 46.7976 106.255 50.8392 106.043 55.7317C106.043 58.497 106.68 61.6877 108.805 65.5166C109.655 67.0057 110.718 68.7074 112.205 70.6218C110.718 68.7074 109.23 67.0057 107.955 65.3039ZM119.856 61.9005C118.368 62.964 117.093 64.2403 116.243 65.3039C113.693 68.4947 113.48 71.0473 113.055 69.9837C112.418 68.282 111.993 66.7929 111.993 65.3039C112.205 62.3259 114.543 60.4114 120.281 59.3479C123.893 58.7097 126.019 57.4334 119.856 61.9005Z" fill="white"/>
<path d="M19.7635 134.65H20.1886L20.8261 132.948L21.6761 131.034L22.5262 129.119C22.7387 128.481 22.9512 128.056 22.9512 127.843H23.3762L24.2262 129.97L25.2888 132.735L26.1388 134.437H26.5639C26.5639 134.65 26.5639 134.65 26.5639 134.862C26.5639 135.075 26.5639 135.288 26.5639 135.288C26.3513 135.075 26.1388 134.862 25.9263 134.862C25.7138 134.862 25.0763 134.862 24.4388 134.862H21.8886C21.6761 134.862 21.4636 134.862 21.4636 134.862C21.2511 134.862 21.0386 134.862 20.8261 134.862C20.6136 134.862 20.6136 134.862 20.4011 134.862C20.1886 134.862 20.1886 134.862 19.976 134.862C19.7635 134.862 19.551 135.075 19.551 135.075C19.551 135.075 19.551 134.862 19.551 134.65H19.7635ZM20.8261 134.65H25.2888L24.8638 133.373L24.0137 131.246L23.3762 129.757L23.1637 129.119L22.5262 130.395L21.8886 131.672C21.6761 132.31 21.4636 132.735 21.2511 133.161C21.2511 133.586 21.0386 134.012 20.8261 134.65ZM32.7266 135.288C32.0891 135.288 31.6641 135.288 31.0266 135.075C30.6015 134.862 30.1765 134.65 29.7515 134.224C29.3265 133.799 29.114 133.586 28.9015 132.948C28.9015 132.735 28.689 132.523 28.689 132.31C28.689 132.097 28.689 131.884 28.689 131.459C28.689 130.821 28.689 130.395 28.9015 129.97C29.114 129.545 29.3265 129.119 29.7515 128.694C30.1765 128.268 30.6015 128.056 31.0266 127.843C31.4516 127.63 32.0891 127.63 32.5141 127.63C32.9392 127.63 33.5767 127.63 34.0017 127.843C34.4267 128.056 34.8517 128.268 35.2768 128.481C35.7018 128.694 35.9143 129.119 36.1268 129.545C36.3393 129.97 36.5518 130.608 36.5518 131.246C36.5518 132.097 36.3393 132.735 36.1268 133.373C35.7018 134.012 35.2768 134.437 34.6392 134.862C34.2142 135.075 33.5767 135.288 32.7266 135.288ZM35.7018 131.459C35.7018 131.034 35.7018 130.821 35.7018 130.608C35.7018 130.395 35.7018 130.183 35.4893 129.757C35.4893 129.545 35.2768 129.332 35.0643 129.119C34.8517 128.906 34.6392 128.694 34.4267 128.481C34.2142 128.268 34.0017 128.268 33.5767 128.056C33.3642 128.056 32.9392 127.843 32.7266 127.843C32.3016 127.843 31.8766 127.843 31.4516 128.056C31.0266 128.268 30.8141 128.481 30.6015 128.694C30.389 128.906 30.1765 129.332 29.964 129.757C29.7515 130.183 29.7515 130.608 29.7515 131.246C29.7515 131.672 29.7515 132.31 29.964 132.735C30.1765 133.161 30.389 133.586 30.6015 133.799C30.8141 134.012 31.2391 134.224 31.4516 134.437C31.8766 134.65 32.0891 134.65 32.5141 134.65C32.9392 134.65 33.3642 134.437 33.7892 134.224C34.2142 134.012 34.4267 133.799 34.6392 133.373C34.8517 132.948 35.0643 132.735 35.2768 132.31C35.7018 132.31 35.7018 131.884 35.7018 131.459ZM46.5398 127.843H46.7523L46.9648 129.545C46.9648 130.183 47.1773 130.821 47.1773 131.459L47.3898 133.161L47.6023 134.862H47.3898H47.1773H46.9648H46.7523H46.5398C46.5398 134.65 46.5398 134.224 46.5398 133.799C46.5398 133.586 46.5398 133.373 46.5398 133.161L46.3273 131.672L46.1148 130.395C46.1148 129.97 46.1148 129.545 45.9023 129.332C45.6898 129.757 45.4772 130.183 45.2647 130.395C45.0522 130.821 44.8397 131.034 44.6272 131.459C44.4147 131.672 44.4147 131.884 44.4147 132.097C44.4147 132.097 44.2022 132.31 44.2022 132.735C44.2022 132.948 43.9897 133.161 43.9897 133.373C43.7772 134.012 43.5647 134.437 43.3521 134.862H43.1396L42.5021 133.586C42.2896 133.373 42.2896 132.948 42.0771 132.735C41.8646 132.523 41.6521 132.097 41.4396 131.672L40.377 129.545C40.377 129.757 40.377 130.183 40.377 130.395C40.377 130.608 40.377 130.821 40.377 131.246L40.1645 132.735L39.952 134.224C39.952 134.437 39.952 134.437 39.952 134.65C39.952 134.862 39.952 135.075 39.952 135.075H39.7395H39.527H39.3145H39.1019L39.527 132.948L39.952 129.97C40.1645 128.906 40.1645 128.268 40.1645 127.843H40.377L41.227 129.332L41.8646 130.395L42.7146 131.884C42.9271 132.31 43.1396 132.523 43.1396 132.735C43.3521 132.948 43.3521 133.161 43.5647 133.586L44.4147 132.097L45.4772 129.97C45.6898 129.757 45.9023 129.332 45.9023 129.119C46.1148 128.906 46.1148 128.694 46.3273 128.481C46.3273 128.268 46.5398 128.056 46.5398 127.843ZM60.1404 127.843L57.8028 130.183L56.9528 131.034L57.8028 132.097L58.8654 133.161L59.5029 134.012L60.353 135.075H60.1404H59.9279H59.7154H59.2904C59.0779 134.65 58.8654 134.437 58.6529 134.012L56.3153 131.246C56.3153 131.246 56.3153 131.246 56.1027 131.246V134.862H55.8902C55.8902 134.862 55.8902 134.862 55.6777 134.862H55.4652H55.2527H55.0402V127.63H55.2527H55.4652H55.6777H55.8902V130.821H56.1027L56.3153 130.608C56.3153 130.608 56.5278 130.395 56.7403 130.183L59.2904 127.417H59.5029H59.7154H59.9279L60.1404 127.843ZM63.9656 131.884V135.288H63.7531C63.7531 135.288 63.7531 135.288 63.5406 135.288H63.3281H63.1156H62.9031V128.056H64.8157C65.4532 128.056 66.0907 128.056 66.5157 128.268C66.9408 128.481 67.1533 128.481 67.3658 128.906C67.5783 129.119 67.5783 129.545 67.5783 129.97C67.5783 130.395 67.5783 130.821 67.3658 131.034C67.1533 131.246 66.9408 131.459 66.5157 131.672C66.0907 131.884 65.6657 131.884 65.2407 132.097H65.0282C64.8157 132.097 64.8157 132.097 64.6031 132.097H63.9656V131.884ZM63.9656 128.268V131.459H64.3906H64.6031C64.8157 131.459 64.8157 131.459 65.0282 131.459C65.4532 131.459 65.6657 131.246 65.8782 131.246C66.0907 131.034 66.3032 130.821 66.5157 130.608C66.7282 130.395 66.7282 130.183 66.7282 129.757C66.7282 129.545 66.7282 129.332 66.5157 129.119C66.5157 128.906 66.3032 128.694 66.0907 128.694C65.8782 128.481 65.6657 128.481 65.4532 128.481H65.2407C65.0282 128.481 64.8157 128.481 64.8157 128.481C64.6031 128.481 64.6031 128.481 64.3906 128.481C63.9656 128.268 63.9656 128.268 63.9656 128.268ZM73.3161 127.843L76.5037 135.288H76.2912H76.0787H75.8662H75.6537H75.4412C75.2286 134.862 75.2286 134.437 75.0161 134.224C75.0161 134.012 74.8036 133.799 74.8036 133.799C74.5911 133.373 74.3786 132.948 74.1661 132.523H71.4035L71.191 132.948L70.9785 133.799L70.7659 134.437L70.5534 135.075H70.3409H70.1284H69.9159H69.7034L73.1035 127.63H73.3161V127.843ZM73.9536 131.884L72.6785 129.119L71.616 131.884H73.9536ZM84.5791 134.012V134.65C84.3666 134.862 84.1541 134.862 83.9416 135.075C83.729 135.075 83.5165 135.288 83.0915 135.288C82.879 135.288 82.454 135.288 82.2415 135.288C81.604 135.288 81.1789 135.288 80.7539 135.075C80.3289 134.862 79.9039 134.65 79.4789 134.224C79.0538 133.799 78.8413 133.586 78.8413 132.948C78.6288 132.523 78.6288 131.884 78.6288 131.459C78.6288 130.608 78.8413 129.97 79.0538 129.545C79.4788 128.906 79.9039 128.481 80.5414 128.268C81.1789 128.056 81.8165 127.843 82.6665 127.843C82.879 127.843 83.0915 127.843 83.5165 127.843C83.729 127.843 83.9416 127.843 84.3666 128.056C84.5791 128.056 84.7916 128.268 85.0041 128.268C85.0041 128.481 84.7916 128.694 84.7916 129.119C84.7916 128.906 84.5791 128.906 84.3666 128.694C84.1541 128.481 83.9416 128.481 83.729 128.268C83.5165 128.056 83.0915 128.056 82.879 128.056C82.2415 128.056 81.8165 128.268 81.3914 128.481C80.9664 128.694 80.5414 129.119 80.3289 129.757C80.1164 130.183 79.9039 130.821 79.9039 131.459C79.9039 132.097 80.1164 132.735 80.3289 133.161C80.5414 133.586 80.9664 134.012 81.3914 134.437C81.8165 134.65 82.2415 134.862 82.879 134.862C83.304 134.862 83.5165 134.862 83.9416 134.65C84.1541 134.65 84.5791 134.437 84.7916 134.224C84.1541 134.224 84.3666 134.224 84.5791 134.012ZM90.9544 135.288C90.3169 135.288 89.8918 135.288 89.2543 135.075C88.8293 134.862 88.4043 134.65 87.9792 134.224C87.5542 133.799 87.3417 133.586 87.1292 132.948C87.1292 132.735 86.9167 132.523 86.9167 132.31C86.9167 132.097 86.9167 131.884 86.9167 131.459C86.9167 130.821 86.9167 130.395 87.1292 129.97C87.3417 129.545 87.5542 129.119 87.9792 128.694C88.4043 128.268 88.8293 128.056 89.2543 127.843C89.6793 127.63 90.3169 127.63 90.7419 127.63C91.1669 127.63 91.8044 127.63 92.2295 127.843C92.6545 128.056 93.0795 128.268 93.5045 128.481C93.9295 128.694 94.142 129.119 94.3546 129.545C94.5671 129.97 94.7796 130.608 94.7796 131.246C94.7796 132.097 94.5671 132.735 94.3546 133.373C93.9295 134.012 93.5045 134.437 92.867 134.862C92.442 135.075 91.5919 135.288 90.9544 135.288ZM93.9295 131.459C93.9295 131.034 93.9295 130.821 93.9295 130.608C93.9295 130.395 93.9295 130.183 93.717 129.757C93.717 129.545 93.5045 129.332 93.292 129.119C93.0795 128.906 92.867 128.694 92.6545 128.481C92.442 128.481 92.0169 128.268 91.8044 128.268C91.5919 128.268 91.1669 128.056 90.9544 128.056C90.5294 128.056 90.1043 128.056 89.6793 128.268C89.2543 128.481 89.0418 128.694 88.8293 128.906C88.6168 129.119 88.4043 129.545 88.1918 129.97C87.9792 130.395 87.9792 130.821 87.9792 131.459C87.9792 131.884 87.9792 132.523 88.1918 132.948C88.4043 133.373 88.6168 133.799 88.8293 134.012C89.0418 134.224 89.4668 134.437 89.6793 134.65C90.1043 134.862 90.3169 134.862 90.7419 134.862C91.1669 134.862 91.5919 134.65 92.0169 134.437C92.442 134.224 92.6545 134.012 92.867 133.586C93.0795 133.161 93.292 132.948 93.5045 132.523C93.717 132.31 93.9295 131.884 93.9295 131.459ZM100.305 128.481V135.288C100.092 135.288 99.8798 135.288 99.8798 135.288C99.6673 135.288 99.6673 135.288 99.4548 135.288V128.481C98.8173 128.481 97.9672 128.481 97.1172 128.694V128.481V128.268V128.056H102.642V128.268V128.481V128.694V128.906H101.58C101.367 128.906 101.367 128.906 101.155 128.906C100.73 128.481 100.517 128.481 100.305 128.481ZM106.043 131.672V134.65H107.105C107.53 134.65 107.743 134.437 107.955 134.437C108.168 134.224 108.38 134.012 108.593 133.799C108.805 133.586 108.805 133.373 108.805 132.948C108.805 132.523 108.805 132.31 108.593 132.097C108.38 131.884 108.168 131.672 107.743 131.672H107.53C107.53 131.672 107.318 131.672 107.105 131.672H106.68H106.043ZM106.043 127.843V131.034H107.105C107.743 131.034 108.38 131.034 108.805 131.246C109.23 131.459 109.443 131.459 109.655 131.884C109.868 132.097 109.868 132.523 109.868 132.948C109.868 133.586 109.655 134.012 109.23 134.437C108.805 134.862 108.38 135.075 107.53 135.075C107.53 135.075 107.318 135.075 107.105 135.075C106.893 135.075 106.468 135.075 106.255 135.075H106.043C105.83 135.075 105.83 135.075 105.83 135.075H105.193V127.843H105.405H105.618H105.83H106.043ZM110.718 135.288V128.056C110.93 128.056 110.93 128.056 111.143 128.056C111.355 128.056 111.568 128.056 111.568 128.056V135.288H111.355H111.143H110.93H110.718ZM119.643 135.288V128.056C119.643 128.056 119.856 128.056 120.068 128.056H120.493V133.586L125.381 128.056H125.806V135.288C125.594 135.288 125.381 135.288 125.381 135.288C125.381 135.288 125.169 135.288 124.956 135.288V129.545H124.743L120.493 134.65C120.281 134.862 120.068 135.075 119.856 135.288H119.643ZM135.369 131.034H138.344C138.344 130.395 138.132 129.97 137.919 129.545C137.707 129.119 137.282 128.694 136.857 128.481C136.432 128.268 136.007 128.056 135.369 128.056C135.156 128.056 134.944 128.056 134.731 128.268C134.731 128.268 134.519 128.268 134.519 128.481C134.519 128.481 134.306 128.481 134.306 128.694C134.094 128.694 133.881 128.906 133.881 128.906C133.669 128.906 133.669 129.119 133.669 129.119C133.669 128.906 133.456 128.481 133.456 128.268C133.669 128.268 133.881 128.056 134.094 128.056C134.306 128.056 134.306 128.056 134.519 128.056C134.731 128.056 134.731 128.056 134.944 128.056C135.156 128.056 135.369 128.056 135.794 128.056C136.644 128.056 137.282 128.268 137.919 128.481C138.557 128.694 138.982 129.119 139.407 129.757C139.832 130.395 139.832 131.034 139.832 131.672C139.832 132.31 139.832 132.735 139.619 133.161C139.407 133.586 139.194 134.012 138.982 134.437C138.557 134.862 138.344 135.075 137.707 135.288C137.282 135.501 136.644 135.501 136.219 135.501C136.007 135.501 135.794 135.501 135.581 135.501C135.369 135.501 135.156 135.501 134.944 135.288C134.519 135.288 134.094 135.075 133.881 134.862V134.224C134.094 134.437 134.519 134.65 134.731 134.862C135.156 135.075 135.581 135.075 136.007 135.075C136.432 135.075 136.857 135.075 137.069 134.862C137.494 134.65 137.707 134.437 137.919 134.224C138.132 134.012 138.344 133.586 138.557 133.161C138.557 132.948 138.769 132.735 138.769 132.523C138.769 132.31 138.769 132.097 138.769 131.884H135.794H135.581H135.369H134.944V131.672V131.459V131.246H135.369V131.034ZM147.907 134.012V134.65C147.695 134.862 147.482 134.862 147.27 135.075C147.057 135.075 146.845 135.288 146.42 135.288C146.207 135.288 145.782 135.288 145.569 135.288C144.932 135.288 144.507 135.288 144.082 135.075C143.657 134.862 143.232 134.65 142.807 134.224C142.382 133.799 142.169 133.586 142.169 132.948C141.957 132.523 141.957 131.884 141.957 131.459C141.957 130.608 142.169 129.97 142.382 129.545C142.807 128.906 143.232 128.481 143.869 128.268C144.507 128.056 145.144 127.843 145.994 127.843C146.207 127.843 146.42 127.843 146.845 127.843C147.057 127.843 147.27 127.843 147.695 128.056C147.907 128.056 148.12 128.268 148.332 128.268C148.332 128.481 148.12 128.694 148.12 129.119C148.12 128.906 147.907 128.906 147.695 128.694C147.482 128.481 147.27 128.481 147.057 128.268C146.845 128.056 146.42 128.056 146.207 128.056C145.569 128.056 145.144 128.268 144.719 128.481C144.294 128.694 143.869 129.119 143.657 129.757C143.444 130.183 143.232 130.821 143.232 131.459C143.232 132.097 143.444 132.735 143.657 133.161C143.869 133.586 144.294 134.012 144.719 134.437C145.144 134.65 145.569 134.862 146.207 134.862C146.632 134.862 146.845 134.862 147.27 134.65C147.482 134.65 147.907 134.437 148.12 134.224C147.482 134.224 147.695 134.224 147.907 134.012ZM153.432 128.481V135.288C153.22 135.288 153.007 135.288 153.007 135.288C152.795 135.288 152.795 135.288 152.582 135.288V128.481C151.945 128.481 151.095 128.481 150.245 128.694V128.481V128.268V128.056H155.77V128.268V128.481V128.694V128.906H154.707C154.495 128.906 154.495 128.906 154.282 128.906C153.645 128.481 153.432 128.481 153.432 128.481ZM159.17 128.481V131.246H160.87H161.083H161.295H161.72V131.459V131.672V131.884V132.097H161.295H161.083H160.87H159.17V134.65C159.17 134.65 159.595 134.65 160.02 134.65C160.445 134.65 160.87 134.65 161.083 134.65C161.295 134.65 161.295 134.65 161.508 134.65C161.72 134.65 161.933 134.65 162.145 134.65V134.862V135.075V135.288V135.501H158.32V128.268H162.145V128.481V128.694V128.906V129.119C161.933 129.119 161.72 129.119 161.72 129.119C161.508 129.119 161.295 129.119 161.295 129.119H160.233H159.17V128.481ZM167.458 128.481V135.288C167.245 135.288 167.033 135.288 167.033 135.288C166.82 135.288 166.82 135.288 166.608 135.288V128.481C165.97 128.481 165.12 128.481 164.27 128.694V128.481V128.268V128.056H169.796V128.268V128.481V128.694V128.906H168.733C168.521 128.906 168.521 128.906 168.308 128.906C167.883 128.481 167.671 128.481 167.458 128.481ZM172.346 135.288V128.056C172.346 128.056 172.558 128.056 172.771 128.056H173.196V133.586L178.084 128.056H178.509V135.288C178.296 135.288 178.084 135.288 178.084 135.288C178.084 135.288 177.871 135.288 177.658 135.288V129.545H177.446L173.196 134.65C172.983 134.862 172.771 135.075 172.558 135.288H172.346ZM187.434 127.843L185.096 130.183L184.246 131.034L185.096 132.097L186.159 133.161L186.796 134.012L187.646 135.075H187.434H187.221H187.009H186.584C186.371 134.65 186.159 134.437 185.946 134.012L183.609 131.246C183.609 131.246 183.609 131.246 183.396 131.246V134.862H183.184C183.184 134.862 183.184 134.862 182.971 134.862H182.759H182.546H182.334V127.63H182.546H182.759H182.971H183.184V130.821H183.396L183.609 130.608C183.609 130.608 183.821 130.395 184.034 130.183L186.584 127.417H186.796H187.009H187.221L187.434 127.843ZM190.197 135.288V128.056C190.197 128.056 190.409 128.056 190.622 128.056H191.047V133.586L195.934 128.056H196.359V135.288C196.147 135.288 195.934 135.288 195.934 135.288C195.934 135.288 195.722 135.288 195.509 135.288V129.545H195.297L190.834 134.65C190.622 134.862 190.409 135.075 190.197 135.288Z" fill="white"/>
</g>
</svg>
