<svg width="348" height="112" viewBox="0 0 348 112" fill="none" xmlns="http://www.w3.org/2000/svg">
<path opacity="0.25" fill-rule="evenodd" clip-rule="evenodd" d="M319.76 32.8083C299.428 44.1215 283.613 47.5154 267.799 47.5154C241.818 47.5154 221.486 33.9396 196.635 21.4952C186.468 16.9699 176.302 12.4447 166.136 7.91945C153.71 3.39419 141.285 1.13157 126.6 0.000259747C149.192 11.3134 158.228 23.7578 166.136 33.9396C172.913 41.8588 178.561 49.778 189.857 55.4346C180.82 53.172 172.913 49.778 166.136 46.3841C148.062 38.4649 136.766 28.2831 124.341 20.3639C119.822 16.9699 114.174 13.576 108.526 11.3134C99.4896 6.78814 87.0641 2.26289 70.1202 0.000262996L73.509 6.78814C64.4723 6.78814 55.4355 7.91945 47.5284 10.1821C1.21508 23.7578 -20.2472 78.0609 24.9365 112C24.9365 112 12.511 96.1619 10.2518 80.3235C9.12224 72.4043 11.3814 65.6164 17.0294 58.8285C23.8069 48.6467 33.9733 45.2528 47.5284 45.2528C55.4355 45.2528 63.3427 45.2528 73.509 47.5154C73.509 47.5154 97.2305 52.0407 109.656 55.4346C114.174 56.5659 119.822 57.6972 125.47 58.8285C139.025 62.2225 152.581 65.6164 167.265 67.879C177.432 70.1417 187.598 71.273 197.764 72.4043C221.486 74.6669 245.207 73.5356 268.929 65.6164C285.872 59.9598 303.946 52.0406 320.89 39.5962C329.927 32.8083 338.963 24.8891 348 14.7073C337.834 22.6265 328.797 28.2831 319.76 32.8083Z" fill="#73AEBE"/>
</svg>
